<svg width="50" height="50" viewBox="0 0 50 50" fill="none" xmlns="http://www.w3.org/2000/svg">
<path d="M26.5278 28.0555H20.4167C20.0115 28.0555 19.6229 28.2165 19.3364 28.503C19.0499 28.7895 18.8889 29.1781 18.8889 29.5833C18.8889 29.9885 19.0499 30.3771 19.3364 30.6636C19.6229 30.9501 20.0115 31.1111 20.4167 31.1111H26.5278C26.933 31.1111 27.3216 30.9501 27.6081 30.6636C27.8946 30.3771 28.0556 29.9885 28.0556 29.5833C28.0556 29.1781 27.8946 28.7895 27.6081 28.503C27.3216 28.2165 26.933 28.0555 26.5278 28.0555ZM32.6389 12.7777H30.8362C30.521 11.8862 29.9377 11.114 29.1664 10.5669C28.3951 10.0199 27.4734 9.72483 26.5278 9.72217H23.4723C22.5267 9.72483 21.605 10.0199 20.8337 10.5669C20.0624 11.114 19.4791 11.8862 19.1639 12.7777H17.3612C16.1456 12.7777 14.9798 13.2606 14.1203 14.1202C13.2607 14.9797 12.7778 16.1455 12.7778 17.3611V35.6944C12.7778 36.91 13.2607 38.0758 14.1203 38.9353C14.9798 39.7948 16.1456 40.2777 17.3612 40.2777H32.6389C33.8545 40.2777 35.0203 39.7948 35.8798 38.9353C36.7394 38.0758 37.2223 36.91 37.2223 35.6944V17.3611C37.2223 16.1455 36.7394 14.9797 35.8798 14.1202C35.0203 13.2606 33.8545 12.7777 32.6389 12.7777ZM21.9445 14.3055C21.9445 13.9003 22.1055 13.5117 22.392 13.2252C22.6785 12.9387 23.0671 12.7777 23.4723 12.7777H26.5278C26.933 12.7777 27.3216 12.9387 27.6081 13.2252C27.8946 13.5117 28.0556 13.9003 28.0556 14.3055V15.8333H21.9445V14.3055ZM34.1667 35.6944C34.1667 36.0996 34.0058 36.4882 33.7192 36.7747C33.4327 37.0612 33.0441 37.2222 32.6389 37.2222H17.3612C16.956 37.2222 16.5674 37.0612 16.2809 36.7747C15.9943 36.4882 15.8334 36.0996 15.8334 35.6944V17.3611C15.8334 16.9559 15.9943 16.5673 16.2809 16.2808C16.5674 15.9942 16.956 15.8333 17.3612 15.8333H18.8889V17.3611C18.8889 17.7662 19.0499 18.1548 19.3364 18.4414C19.6229 18.7279 20.0115 18.8888 20.4167 18.8888H29.5834C29.9886 18.8888 30.3772 18.7279 30.6637 18.4414C30.9502 18.1548 31.1112 17.7662 31.1112 17.3611V15.8333H32.6389C33.0441 15.8333 33.4327 15.9942 33.7192 16.2808C34.0058 16.5673 34.1667 16.9559 34.1667 17.3611V35.6944ZM29.5834 21.9444H20.4167C20.0115 21.9444 19.6229 22.1054 19.3364 22.3919C19.0499 22.6784 18.8889 23.067 18.8889 23.4722C18.8889 23.8774 19.0499 24.266 19.3364 24.5525C19.6229 24.839 20.0115 24.9999 20.4167 24.9999H29.5834C29.9886 24.9999 30.3772 24.839 30.6637 24.5525C30.9502 24.266 31.1112 23.8774 31.1112 23.4722C31.1112 23.067 30.9502 22.6784 30.6637 22.3919C30.3772 22.1054 29.9886 21.9444 29.5834 21.9444Z" fill="#9E63FF"/>
<circle cx="25" cy="25" r="24" stroke="#9E63FF" stroke-width="2"/>
</svg>
