<svg width="360" height="212" viewBox="0 0 360 212" fill="none" xmlns="http://www.w3.org/2000/svg">
<path d="M0 -44H360V182C360 198.569 346.569 212 330 212H30C13.4315 212 0 198.569 0 182V-44Z" fill="#FFF0FF"/>
<path d="M177.176 212C227.662 212 268.588 206.926 268.588 200.668C268.588 194.409 227.662 189.336 177.176 189.336C126.691 189.336 85.7647 194.409 85.7647 200.668C85.7647 206.926 126.691 212 177.176 212Z" fill="#3F3D56"/>
<path d="M331.809 103.774L296.471 120.297L327.747 97.1928C322.663 89.3543 316.953 81.9306 310.67 74.9928L157.412 112.626L295.847 60.4552C289.521 54.941 282.803 49.8822 275.744 45.3175L42.215 82.4789C17.4201 113.111 3.90369 151.16 3.8846 190.382H355.41C355.395 159.964 347.254 130.088 331.809 103.774Z" fill="#F2F2F2"/>
<path d="M256.632 34.5897C232.655 23.0367 206.323 17.0502 179.647 17.0875C125.354 17.0875 76.8136 41.4089 44.5728 79.6229C99.7822 67.6721 195.906 46.9845 256.632 34.5897Z" fill="#F2F2F2"/>
<path d="M360 190.033H0V190.73H360V190.033Z" fill="#2F2E41"/>
<path d="M319.214 190.033L291.176 148.889C291.176 148.889 333.638 163.533 328.819 190.033H319.214Z" fill="#3F3D56"/>
<path d="M320.315 190.033L348.353 148.889C348.353 148.889 305.892 163.533 310.71 190.033H320.315Z" fill="#6C63FF"/>
<path d="M201.236 57.0851C193.936 44.8985 179.493 44.3306 179.493 44.3306C179.493 44.3306 165.418 42.5525 156.39 61.1128C147.975 78.4125 136.36 95.1158 154.52 99.1655L157.8 89.0794L159.832 99.9164C162.417 100.1 165.011 100.144 167.602 100.048C187.049 99.4273 205.57 100.229 204.974 93.3347C204.181 84.1697 208.261 68.811 201.236 57.0851Z" fill="#2F2E41"/>
<path d="M153.483 163.809C153.269 165.149 152.958 166.473 152.552 167.769C152.095 169.038 151.39 170.212 150.972 171.494C149.641 175.581 151.486 180.138 154.434 183.293C156.991 186.018 160.291 187.953 163.936 188.867C166.596 189.528 169.361 189.623 172.101 189.714C179.691 189.969 187.475 190.196 194.666 187.787C196.938 187.007 199.133 186.022 201.222 184.844C201.882 184.534 202.463 184.082 202.923 183.521C203.472 182.75 203.542 181.749 203.537 180.807C203.521 177.628 202.869 174.466 203.023 171.291C203.109 169.533 203.442 167.775 203.278 166.022C203.051 164.031 202.207 162.158 200.861 160.66C199.515 159.161 197.733 158.11 195.759 157.65C193.719 157.217 191.603 157.453 189.527 157.65C184.135 158.162 178.721 158.401 173.306 158.367C167.772 158.332 162.273 157.497 156.767 157.41C155.138 157.384 155.171 157.88 154.653 159.437C154.175 160.87 153.785 162.33 153.483 163.809Z" fill="#2F2E41"/>
<path d="M169.187 85.3258C168.921 86.7014 168.634 88.1273 167.797 89.2577C166.834 90.5583 165.265 91.3015 164.229 92.5462C162.67 94.4197 162.581 97.0561 162.574 99.4813C162.568 101.716 162.614 104.099 163.875 105.953C164.694 107.157 165.939 108.001 167.156 108.811C171.886 111.96 176.997 115.165 182.699 115.269C185.062 115.312 187.595 114.709 189.149 112.951C189.821 112.125 190.348 111.195 190.711 110.198C192.169 106.647 193.053 102.892 193.33 99.0702C193.46 97.272 193.448 95.4214 192.832 93.7245C192.139 91.8164 190.738 90.2465 189.813 88.4374C188.718 86.2862 188.318 83.8552 188.666 81.4723C188.712 81.3045 188.698 81.1261 188.626 80.9675C188.55 80.8826 188.455 80.8163 188.348 80.7737C188.242 80.7311 188.127 80.7134 188.012 80.722L176.706 79.9179C175.653 79.8662 174.604 79.7477 173.566 79.5631C172.957 79.4406 171.347 78.5854 170.766 78.8128C169.69 79.2338 169.408 84.1851 169.187 85.3258Z" fill="#FFB8B8"/>
<path opacity="0.1" d="M169.187 85.3258C168.921 86.7014 168.634 88.1273 167.797 89.2577C166.834 90.5583 165.265 91.3015 164.229 92.5462C162.67 94.4197 162.581 97.0561 162.574 99.4813C162.568 101.716 162.614 104.099 163.875 105.953C164.694 107.157 165.939 108.001 167.156 108.811C171.886 111.96 176.997 115.165 182.699 115.269C185.062 115.312 187.595 114.709 189.149 112.951C189.821 112.125 190.348 111.195 190.711 110.198C192.169 106.647 193.053 102.892 193.33 99.0702C193.46 97.272 193.448 95.4214 192.832 93.7245C192.139 91.8164 190.738 90.2465 189.813 88.4374C188.718 86.2862 188.318 83.8552 188.666 81.4723C188.712 81.3045 188.698 81.1261 188.626 80.9675C188.55 80.8826 188.455 80.8163 188.348 80.7737C188.242 80.7311 188.127 80.7134 188.012 80.722L176.706 79.9179C175.653 79.8662 174.604 79.7477 173.566 79.5631C172.957 79.4406 171.347 78.5854 170.766 78.8128C169.69 79.2338 169.408 84.1851 169.187 85.3258Z" fill="black"/>
<path d="M180 86.8237C189.161 86.8237 196.588 79.4865 196.588 70.4357C196.588 61.3848 189.161 54.0477 180 54.0477C170.839 54.0477 163.412 61.3848 163.412 70.4357C163.412 79.4865 170.839 86.8237 180 86.8237Z" fill="#FFB8B8"/>
<path d="M171.514 107.141C172.378 108.034 173.294 108.918 174.427 109.441C175.581 109.912 176.819 110.145 178.067 110.126C181.058 110.209 184.299 109.667 186.379 107.544C189.061 104.806 188.972 100.39 191.074 97.1964C191.243 96.9069 191.474 96.6572 191.751 96.4647C192.104 96.2751 192.502 96.1846 192.903 96.203C195.558 96.1785 197.87 97.8793 199.957 99.5002C200.892 100.226 201.85 100.979 202.439 101.999C202.852 102.794 203.135 103.649 203.277 104.532C204.312 109.526 204.648 114.632 204.98 119.72C205.164 122.53 205.348 125.342 205.335 128.158C205.29 137.435 203.107 146.556 200.937 155.582C200.657 156.745 200.274 158.045 199.204 158.602C198.727 158.814 198.214 158.938 197.692 158.967C191.475 159.688 185.246 160.41 178.987 160.505C176.545 160.542 174.104 160.484 171.663 160.33C171.243 160.325 170.827 160.253 170.43 160.118C169.891 159.862 169.427 159.473 169.085 158.989C165.699 154.775 165.5 148.948 165.521 143.568C165.574 130.414 166.05 117.271 166.948 104.138C167.022 103.054 167.039 101.737 166.248 100.884C167.672 103.136 169.652 105.218 171.514 107.141Z" fill="#D0CDE1"/>
<path d="M168 88.2184C167.44 89.2203 163.309 91.7082 162.512 92.5387C158.056 97.1783 149.924 97.0042 145.85 101.974C144.416 103.722 143.671 105.919 143.123 108.103C142.349 111.192 141.935 114.561 143.233 117.473C144.482 120.276 147.111 122.213 148.896 124.717C150.856 127.465 151.737 130.803 152.581 134.06C153.205 136.465 153.833 138.929 153.591 141.4C153.314 144.21 151.938 146.782 151.126 149.488C150.313 152.194 150.173 155.417 152.052 157.544C153.432 159.106 155.597 159.725 157.666 160.074C160.316 160.467 162.988 160.697 165.668 160.762C168.033 160.865 170.64 160.885 172.459 159.387C173.893 158.205 174.517 156.287 174.598 154.443C174.678 152.599 174.29 150.772 174.047 148.942C173.795 147.045 173.698 145.131 173.617 143.22C173.253 134.643 173.203 126.06 173.468 117.472C173.523 115.685 173.59 113.876 173.204 112.129C172.697 109.832 171.44 107.779 170.391 105.668C168.31 101.478 167.325 97.408 167.647 92.7512C167.965 88.1548 169.994 84.653 168 88.2184Z" fill="#6C63FF"/>
<path d="M191.294 88.567C192.147 89.4335 195.047 89.7192 196.133 90.2772C197.154 90.7432 198.219 91.1077 199.314 91.3652C203.273 92.4937 207.04 94.2015 210.488 96.4318C211.204 96.8458 211.837 97.3863 212.356 98.0263C212.964 98.861 213.184 99.9024 213.39 100.91C213.921 103.511 214.456 106.144 214.336 108.795C214.209 111.609 213.351 114.334 212.5 117.023L209.32 127.068C206.946 134.566 204.557 142.138 203.889 149.966C203.519 154.305 203.683 158.672 204.378 162.972C204.448 163.404 204.506 163.9 204.218 164.232C204.008 164.436 203.732 164.562 203.439 164.586C201.904 164.823 200.418 164.05 199.027 163.365C194.777 161.275 190.24 159.809 185.561 159.012C187.389 156.402 188.8 153.529 189.744 150.494C190.279 148.567 190.701 146.611 191.007 144.636L192.487 136.182C193.089 133.092 193.512 129.971 193.756 126.833C193.868 125.656 193.798 124.469 193.55 123.312C193.209 122.211 192.756 121.147 192.199 120.136C189.76 115.125 188.616 109.407 189.576 103.929C189.996 101.531 190.811 99.1306 190.471 96.7208C190.144 94.4039 190.484 92.6033 189.882 90.3104C187.412 80.8961 189.689 86.9369 191.294 88.567Z" fill="#6C63FF"/>
<path d="M145.807 109.896C144.696 112.175 142.837 114.116 142.205 116.568C141.959 117.713 141.853 118.884 141.891 120.054C141.876 121.819 141.866 123.619 142.414 125.298C142.767 126.379 143.342 127.376 143.756 128.435C144.332 129.916 144.589 131.499 144.51 133.084C144.398 135.279 143.643 137.41 143.584 139.607C143.492 143.062 145.109 146.31 146.688 149.395C147.085 148.423 147.692 147.548 148.468 146.833C149.243 146.117 150.167 145.577 151.175 145.251C152.184 144.925 153.252 144.82 154.305 144.944C155.359 145.069 156.372 145.419 157.274 145.971C157.691 145.591 157.735 144.967 157.752 144.407C157.868 140.399 157.981 136.39 158.089 132.381C158.26 126.181 158.423 119.899 156.979 113.863C156.327 111.138 155.313 108.423 153.454 106.309C152.475 105.196 149.152 102.264 147.545 103.511C146.822 104.072 146.991 105.598 146.876 106.371C146.703 107.593 146.343 108.782 145.807 109.896Z" fill="#6C63FF"/>
<path d="M214.661 103.329C215.187 104.946 215.218 106.674 215.229 108.373C215.25 111.838 215.204 115.303 215.089 118.768C215.031 120.541 214.95 122.339 214.406 124.03C214.047 125.145 213.493 126.191 213.122 127.303C212.011 130.633 212.618 134.246 212.713 137.752C212.781 138.887 212.683 140.025 212.422 141.132C211.836 143.306 210.26 145.062 209.16 147.031C208.116 148.902 207.486 150.998 206.238 152.743C204.991 154.488 202.831 155.87 200.738 155.335C199.152 154.929 198.025 153.542 197.246 152.118C195.545 148.988 194.963 145.383 195.594 141.885C196.377 137.63 198.907 133.855 199.819 129.625C201.072 123.817 199.168 117.823 199.225 111.884C199.199 110.953 199.327 110.025 199.603 109.134C200.082 107.778 201.11 106.695 202.059 105.607C203.246 104.247 204.348 102.818 205.36 101.327C206.04 100.325 206.963 97.7491 208.169 97.5349C210.859 97.0566 213.993 101.275 214.661 103.329Z" fill="#6C63FF"/>
<path d="M131.845 161.226C130.357 160.856 128.824 160.695 127.29 160.747C125.679 160.835 124.105 161.261 122.674 161.996C121.242 162.732 119.985 163.76 118.987 165.012C117.989 166.264 117.272 167.712 116.884 169.26C116.496 170.807 116.446 172.418 116.737 173.986C117.108 175.685 117.715 177.324 118.541 178.858C119.749 181.28 121.198 183.696 123.434 185.248C124.742 186.156 126.256 186.722 127.752 187.279L139.529 191.662C141.262 192.306 142.995 192.951 144.744 193.549C153.535 196.551 162.699 198.351 171.983 198.899C174.811 199.065 177.682 199.112 180.441 198.476C181.095 198.325 181.794 198.1 182.173 197.551C182.397 197.165 182.53 196.733 182.56 196.288L183.284 191.276C183.387 190.571 183.485 189.828 183.223 189.163C182.891 188.321 182.059 187.791 181.265 187.341C173.523 182.948 164.482 180.524 157.965 174.494C156.431 173.075 155.147 170.824 153.283 169.86C151.169 168.767 148.68 168.143 146.495 167.135C141.718 164.932 137.022 162.401 131.845 161.226Z" fill="#2F2E41"/>
<path opacity="0.1" d="M143.603 167.983C147.765 169.271 165.341 178.199 168.353 181.316C167.949 181.46 154.249 173.875 153.838 173.753C150.101 172.645 146.344 171.53 142.795 169.908C142.081 169.582 138.157 168.049 138.335 167.159C138.535 166.155 142.864 167.754 143.603 167.983Z" fill="black"/>
<path d="M195.535 201.498C195.772 201.516 196.006 201.447 196.195 201.307C196.278 201.201 196.339 201.081 196.375 200.952C196.41 200.823 196.419 200.689 196.402 200.556C196.395 198.28 196.389 196.004 196.382 193.728C194.395 192.793 192.171 192.493 189.989 192.204L179.807 190.86C180.041 190.891 178.215 195.192 178.495 195.767C178.989 196.779 182.76 197.676 183.824 198.154C187.524 199.815 191.368 201.642 195.535 201.498Z" fill="#FFB8B8"/>
<path d="M163.59 193.704C161.668 194.007 159.522 194.274 158.277 195.753C156.698 197.628 157.37 200.423 158.123 202.745C158.235 203.215 158.46 203.651 158.778 204.017C159.292 204.518 160.08 204.592 160.8 204.637C162.554 204.746 164.419 204.832 165.951 203.983C166.645 203.53 167.313 203.039 167.952 202.513C169.082 201.771 170.324 201.21 171.631 200.852C174.035 200.105 176.509 199.601 179.016 199.348C180.003 199.304 180.981 199.134 181.925 198.842C182.849 198.498 183.705 197.816 183.973 196.877C184.328 195.636 183.598 194.371 182.898 193.282C182.026 191.927 181.102 190.499 179.801 189.501C177.904 188.045 176.966 189.163 175.055 190.095C171.438 191.858 167.573 193.075 163.59 193.704Z" fill="#FFB8B8"/>
<path d="M158.566 195.415L146.359 191.851C144.875 191.417 143.365 190.98 141.817 190.981C140.269 190.982 138.649 191.484 137.645 192.648C136.699 193.745 136.428 195.245 136.192 196.668L135.687 199.712C135.43 201.259 135.173 202.835 135.404 204.386C135.635 205.937 136.436 207.486 137.829 208.237C139.518 209.147 141.589 208.703 143.474 208.322C147.282 207.553 151.155 207.143 155.042 207.096C156.503 207.079 158.035 207.097 159.326 206.421C160.861 205.618 161.779 203.919 161.937 202.21C162.177 199.61 161.3 196.213 158.566 195.415Z" fill="#2F2E41"/>
<path d="M200.334 192.309C201.916 192.035 203.313 191.147 204.829 190.622C206.963 189.884 209.276 189.884 211.537 189.892C212.368 189.895 213.252 189.914 213.943 190.368C214.939 191.023 215.194 192.334 215.363 193.504L216.385 200.565C216.577 201.893 216.768 203.257 216.469 204.565C216.169 205.874 215.266 207.135 213.952 207.472C212.356 207.882 210.791 206.875 209.284 206.213C205.517 204.559 201.138 204.982 197.21 203.746C196.481 203.517 195.701 203.166 195.403 202.469C195.269 202.077 195.221 201.661 195.263 201.249C195.33 198.98 194.846 195.881 195.537 193.712C196.159 191.761 198.567 192.309 200.334 192.309Z" fill="#2F2E41"/>
<path d="M226.166 158.384C228.605 157.779 231.133 157.609 233.633 157.88C235.629 158.097 237.686 158.646 239.144 160.011C240.918 161.672 241.488 164.242 241.535 166.656C241.613 171.465 239.999 176.152 236.967 179.915C236.227 180.867 235.347 181.704 234.356 182.399C233.287 183.06 232.147 183.602 230.958 184.017L204.584 194.294C197.645 196.998 190.682 199.709 183.445 201.492C183.247 201.586 183.032 201.64 182.813 201.651C182.593 201.662 182.374 201.63 182.167 201.556C181.96 201.482 181.771 201.368 181.61 201.22C181.448 201.073 181.319 200.895 181.228 200.698C178.917 197.437 176.978 193.933 175.447 190.251C175.375 190.164 175.325 190.06 175.301 189.949C175.278 189.839 175.282 189.724 175.313 189.615C175.344 189.506 175.401 189.406 175.479 189.324C175.557 189.241 175.654 189.179 175.762 189.141L194.417 178.552C195.753 177.793 197.105 177.024 198.214 175.967C199.02 175.195 199.681 174.288 200.164 173.286C200.55 172.488 200.586 170.605 201.08 170.016C201.564 169.438 203.218 169.392 203.982 169.165C205.06 168.839 206.115 168.445 207.141 167.985C211.314 166.141 215.03 163.461 219.031 161.302C221.274 160.034 223.672 159.054 226.166 158.384Z" fill="#2F2E41"/>
<path opacity="0.1" d="M215.59 166.292C212.385 168.67 208.235 170.856 205.059 173.296C203.975 174.129 185.903 184.167 185.647 185.5C188.611 185.994 207.488 172.947 210.189 171.645C212.89 170.343 215.284 168.507 217.657 166.685C218.261 166.22 220.824 164.824 219.088 164.305C218.11 164.013 216.312 165.816 215.59 166.292Z" fill="black"/>
<path d="M198.009 55.9103L183.739 48.5262L164.034 51.5469L159.957 69.3362L170.106 68.9506L172.941 62.4149V68.8428L177.624 68.6646L180.342 58.26L182.041 69.3362L198.688 69.0004L198.009 55.9103Z" fill="#2F2E41"/>
<path d="M194.824 92.4025H164.118V129.014H194.824V92.4025Z" fill="#3F3D56"/>
<path d="M149.541 156.08C150.246 157.119 151.072 158.136 152.204 158.697C152.926 159.023 153.714 159.182 154.508 159.161C155.301 159.14 156.079 158.94 156.783 158.576C158.188 157.832 159.338 156.693 160.087 155.303C161.638 152.598 161.959 149.36 161.766 146.257C161.572 143.154 160.901 140.098 160.605 137.003C160.389 134.753 160.371 132.49 160.354 130.23C160.3 129.754 160.401 129.275 160.642 128.86C160.985 128.396 161.614 128.269 162.172 128.105C165.301 127.186 167.379 124.288 168.868 121.418C169.863 119.501 170.728 117.406 170.536 115.26C170.344 113.115 168.783 110.953 166.614 110.734C164.826 110.554 163.175 111.676 161.885 112.913C158.632 116.052 156.54 120.181 155.948 124.635C155.665 126.817 155.746 129.058 155.145 131.176C153.863 135.697 149.85 138.47 147.851 142.539C145.648 147.022 146.864 152.112 149.541 156.08Z" fill="#FFB8B8"/>
<path d="M208.585 138.804C208.129 139.853 207.465 140.8 206.632 141.591C205.798 142.382 204.813 143 203.734 143.409C202.393 143.941 200.914 144.03 199.517 143.664C198.825 143.474 198.186 143.129 197.65 142.656C197.114 142.182 196.696 141.593 196.428 140.934C196.214 140.27 196.097 139.58 196.08 138.884C195.879 135.834 195.957 132.692 197.078 129.844C197.511 128.745 198.094 127.703 198.435 126.574C198.77 125.27 198.942 123.93 198.946 122.584L199.314 114.263C199.375 113.659 199.333 113.05 199.189 112.459C198.822 111.255 197.683 110.473 196.638 109.755C194.114 108.021 191.62 105.998 190.397 103.212C189.977 102.373 189.827 101.427 189.966 100.501C190.311 98.8491 191.998 97.7794 193.667 97.4191C194.758 97.1833 195.887 97.1683 196.984 97.3748C198.082 97.5814 199.125 98.0054 200.053 98.6211C200.98 99.2368 201.771 100.032 202.379 100.958C202.987 101.884 203.399 102.922 203.591 104.009C203.756 104.948 203.753 105.907 203.85 106.855C204.055 108.867 204.701 110.806 205.106 112.787C206.102 117.669 205.585 122.715 206.57 127.595C207.394 131.676 210.499 134.339 208.585 138.804Z" fill="#FFB8B8"/>
<path d="M18.5756 189.691L17.8697 189.678C18.1427 181.924 18.9801 174.2 20.3755 166.565C23.4278 150.218 28.5034 139.483 35.4613 134.656L35.8666 135.227C19.613 146.501 18.5839 189.261 18.5756 189.691Z" fill="#2F2E41"/>
<path d="M27.3991 189.524L26.6933 189.511C26.7084 188.739 27.1496 170.538 34.4025 165.507L34.8078 166.078C27.8476 170.905 27.4026 189.339 27.3991 189.524Z" fill="#2F2E41"/>
<path d="M39.8824 135.29C41.8316 135.29 43.4118 133.729 43.4118 131.803C43.4118 129.878 41.8316 128.317 39.8824 128.317C37.9331 128.317 36.3529 129.878 36.3529 131.803C36.3529 133.729 37.9331 135.29 39.8824 135.29Z" fill="#6C63FF"/>
<path d="M38.1345 165.277C40.0838 165.277 41.664 163.716 41.664 161.79C41.664 159.864 40.0838 158.303 38.1345 158.303C36.1853 158.303 34.6051 159.864 34.6051 161.79C34.6051 163.716 36.1853 165.277 38.1345 165.277Z" fill="#6C63FF"/>
<path d="M25.754 137.38C26.4173 141.566 24.6885 145.31 24.6885 145.31C24.6885 145.31 21.8843 142.267 21.221 138.082C20.5577 133.896 22.2865 130.152 22.2865 130.152C22.2865 130.152 25.0907 133.195 25.754 137.38Z" fill="#2F2E41"/>
<path d="M37.2906 147.546C33.2343 148.92 29.2016 147.891 29.2016 147.891C29.2016 147.891 31.7456 144.633 35.802 143.258C39.8583 141.884 43.8909 142.913 43.8909 142.913C43.8909 142.913 41.347 146.171 37.2906 147.546Z" fill="#2F2E41"/>
<path d="M37.421 174.102C35.5851 174.671 33.63 174.755 31.7512 174.344C32.9441 172.843 34.5508 171.715 36.3775 171.096C38.2043 170.477 40.1733 170.393 42.0472 170.855C40.8195 172.318 39.2242 173.438 37.421 174.102Z" fill="#2F2E41"/>
</svg>
