<svg width="80" height="80" viewBox="0 0 80 80" fill="none" xmlns="http://www.w3.org/2000/svg">
<path d="M39.3313 62.2062C39.3313 62.2062 43.1187 61.3187 45.4812 58.9562L28.25 40.2687L22.5312 43.5375L23.8938 58.05L34.8625 62.5L39.3313 62.2062Z" fill="#2F2F2F"/>
<path d="M30.7 62.9875C30.3063 63.0437 30.2688 63.1312 30.325 63.475C30.6938 65.8187 30.3563 68.3938 28.0063 69.4625C27.2625 69.8063 26.4688 69.9938 25.675 70.15C24.7313 70.3313 23.7937 70.475 23.3812 71.4875C22.5312 73.5438 24.8313 73.1875 26.0375 73.1063C27.8938 72.9875 30.0813 72.4 31.575 71.2813C32.5438 70.55 32.8938 69.4313 32.9125 68.2688C32.9313 66.85 33.275 65.325 33.525 63.9437C33.6 63.5375 33.8625 63.025 33.7813 62.6C33.2313 62.7313 32.6875 62.9125 32.125 63.0188C31.6313 63.1125 31.2063 62.925 30.7 62.9875Z" fill="#F48120"/>
<path d="M40.2125 69.85C40.6688 68.0938 40.4375 66.1563 40.0875 64.3938C40.025 64.0875 39.95 63.7813 39.8875 63.475C39.825 63.2125 39.7563 62.9625 39.7188 62.7C39.6563 62.2375 39.2625 62.0938 38.8688 62.1625C38.5625 62.2125 38.2438 62.2188 37.9313 62.2563C37.6063 62.2938 37.0375 62.3 36.8188 62.5813C36.6438 62.7938 36.8938 63.1 36.9438 63.325C37.0125 63.65 37.0875 63.9875 37.125 64.3125C37.1938 64.9938 37.1938 65.6813 37.125 66.3688C36.9813 67.7688 36.525 69.1188 35.9813 70.4125C35.6125 71.2688 34.9813 72.0125 34.6375 72.8625C33.9375 74.5813 37.2625 74.5375 38.15 74.25C39.15 73.9125 39.3938 72.9375 39.5938 72.025C39.7625 71.3 40.0188 70.575 40.2125 69.85Z" fill="#F48120"/>
<path d="M69.8437 25.9813C66.9062 25.2813 63.9875 24.1125 60.85 23.825C56.1437 23.3938 54.5 25.4375 51.5062 28.55C49.925 30.1875 48.5625 33.4875 46.2687 34.2C43.55 35.0438 40.5937 32.275 38.9937 30.4188C36.6687 27.7188 35.5687 24.2875 33.9 21.2C32.225 18.1063 29.2062 15.3813 25.925 14.0938C23.9625 13.325 21.6062 13.0438 19.5 13.175C16.35 13.3688 13.2812 14.55 10.7125 16.3813C3.73749 21.35 3.29999 30.4938 6.50624 37.8125C9.24374 44.0813 7.23124 51.7875 12.1687 57.1313C17.2125 62.6 25.7437 64.5438 32.9125 63.7688C34.7437 63.575 36.5375 63.1563 38.275 62.5688C38.625 62.45 38.9812 62.325 39.3312 62.2063C38.6187 61.95 37.925 61.6 37.35 61.3125C34.3008 59.7626 31.7026 57.4529 29.8062 54.6063C28.675 52.9125 27.65 51.125 26.9687 49.2C26.625 48.2 26.35 47.1375 26.2375 46.0875C26.1875 45.6 26.125 44.975 26.3687 44.5188C26.85 43.6188 27.3687 44.625 27.475 45.1C28.65 50.4188 31.9937 55.2563 36.7312 58.0063C38.15 58.825 39.6437 59.5125 41.2 60.025C43.3187 60.725 45.6562 61.1875 47.8625 60.6625C50.3562 60.0688 51.3687 57.8938 53.575 56.8563C54.4937 56.425 55.1312 56.075 55.7187 55.2125C55.9812 54.825 56.2187 54.4438 56.5937 54.1563C56.9625 53.8563 57.4187 53.825 57.7687 53.4875C58.0812 53.175 58.3187 52.7313 58.425 52.3063C58.5062 52.0188 58.5937 51.8 58.475 51.5063C58.3062 51.075 57.8187 50.8125 57.4812 50.525C56.3875 49.5625 55.2875 49.3125 56.7187 48.1C58.1437 46.9188 59.6687 45.875 61.25 44.925C62.5 44.175 63.6375 43.3188 64.9 42.575C67.7125 40.9063 70.5062 39.1875 73.4187 37.7063C75.5625 36.6188 78.7375 35.4688 79.25 32.7813C79.85 29.525 72.3437 26.5688 69.8437 25.9813Z" fill="#37B4E2"/>
<path d="M16.55 26.425C15.7188 27.65 15.925 29.4062 17 30.35C18.0875 31.2875 19.6313 31.0625 20.4625 29.8437C21.2875 28.6187 21.0813 26.8562 20.0063 25.9125C18.9188 24.9812 17.375 25.2062 16.55 26.425Z" fill="#2F2F2F"/>
<path d="M6.4625 28.5563C5.89375 28.5688 5.3 29.0313 4.85625 29.3438C4.1125 29.875 3.41875 30.4875 2.78125 31.1438C2.175 31.7625 1.5875 32.425 1.15625 33.175C0.718753 33.8938 0.387503 34.5813 1.3 35C2.24375 35.4313 3.28125 35.4313 4.3 35.5438C5.35 35.6625 6.40625 35.7438 7.4625 35.7938C8.35 35.8313 9.425 35.9875 10.275 35.6875C10.825 35.4938 10.6625 34.9875 10.5875 34.55C10.4625 33.9 10.1188 33.3188 9.8625 32.7125C9.33125 31.4438 8.25625 28.6188 6.55625 28.5563H6.4625Z" fill="#F48120"/>
</svg>
