<svg width="80" height="80" viewBox="0 0 80 80" fill="none" xmlns="http://www.w3.org/2000/svg">
<path d="M40 77.5C60.7107 77.5 77.5 60.7107 77.5 40C77.5 19.2893 60.7107 2.5 40 2.5C19.2893 2.5 2.5 19.2893 2.5 40C2.5 60.7107 19.2893 77.5 40 77.5Z" fill="#3E4347"/>
<path d="M7.875 22.5L4.5 19.125C1.875 16.5 1.875 12.25 4.5 9.74999L9.75 4.49999C12.375 1.87499 16.625 1.87499 19.125 4.49999L22.5 7.87499L18.625 11.75L15.25 8.37499C14.875 7.99999 14.125 7.99999 13.625 8.37499L8.375 13.625C8 14 8 14.75 8.375 15.25L11.75 18.625L7.875 22.5Z" fill="#3E4347"/>
<path d="M72.125 57.5L75.5 60.875C78.125 63.5 78.125 67.75 75.5 70.25L70.25 75.5C67.625 78.125 63.375 78.125 60.875 75.5L57.5 72.125L61.375 68.25L64.75 71.625C65.125 72 65.875 72 66.375 71.625L71.625 66.375C72 66 72 65.25 71.625 64.75L68.25 61.375L72.125 57.5Z" fill="#3E4347"/>
<path d="M40 69.25C56.1543 69.25 69.25 56.1543 69.25 40C69.25 23.8457 56.1543 10.75 40 10.75C23.8457 10.75 10.75 23.8457 10.75 40C10.75 56.1543 23.8457 69.25 40 69.25Z" fill="#F2B200"/>
<path d="M49.5 14.25C43.25 11 33.375 17.25 34.5 22.5C35.625 27.75 48.5 31.5 52 38.875C55.5 46.25 57.125 48.625 63.375 43.625C69.5 38.5 72.375 26.375 49.5 14.25Z" fill="#B47D56"/>
<path d="M48.5 17.25C52.75 17.25 45.875 19.625 41.875 23.125C39.875 24.875 40.75 17.25 48.5 17.25Z" fill="#89664C"/>
<path d="M57.625 23.375C61.875 23.375 55 25.75 50.875 29.25C49 30.875 49.875 23.375 57.625 23.375Z" fill="#89664C"/>
<path d="M63.25 32.75C67.5 32.75 60.625 35.125 56.5 38.625C54.625 40.25 55.625 32.75 63.25 32.75Z" fill="#89664C"/>
<path d="M13.375 47.5C11 41.5 18.875 34.125 24 36C29.25 37.875 31.125 49.625 38 54C44.875 58.25 47.125 60.125 41.125 64.625C35 69.125 22.25 69.375 13.375 47.5Z" fill="#B47D56"/>
<path d="M16.75 49.125C16.125 52.75 19.5 47.25 23.75 44.375C25.75 43 17.875 42.5 16.75 49.125Z" fill="#89664C"/>
<path d="M21 56.75C20.375 60.375 23.75 54.875 28 52C30 50.625 22.125 50.125 21 56.75Z" fill="#89664C"/>
<path d="M28.5 62.375C27.875 66 31.25 60.5 35.5 57.625C37.5 56.25 29.75 55.625 28.5 62.375Z" fill="#89664C"/>
<path d="M32 16.25C29.25 13.625 29.25 13.625 21.25 22C16.875 26.625 14.625 31.5 16.125 32.875C18.875 35.5 18.875 35.5 26.75 27.125C31.25 22.625 33.5 17.75 32 16.25Z" fill="#699635"/>
<path d="M64.375 50.25C62.125 47.25 62.125 47.25 53 53.75C47.875 57.375 44.875 61.625 46 63.25C48.25 66.25 48.25 66.25 57.375 59.75C62.5 56.125 65.625 51.875 64.375 50.25Z" fill="#699635"/>
<path d="M48.25 41.5C49.875 37.75 49.875 37.75 38.875 32.625C32.75 29.75 27.125 29.125 26.25 31.125C24.625 34.875 24.625 34.875 35.625 40C41.625 42.875 47.25 43.5 48.25 41.5Z" fill="#699635"/>
<path d="M54.375 47.25C54.625 44.5 52.375 45.875 48.25 45.75C44.125 45.5 45.25 48.75 45.5 51.375C45.625 54 47.25 51.875 53.25 52C55.5 52.125 54 50 54.375 47.25Z" fill="#ED4C5C"/>
<path d="M37.375 42.625C34.25 41.5 35.25 43.625 33.625 46.625C32 49.625 36.25 49.75 39.375 50.5C42.5 51.25 40.5 49.375 42.625 45C43.5 43.375 40.5 43.75 37.375 42.625Z" fill="#FFCE31"/>
<path d="M30.625 23.625C27.5 22.5 28.5 24.625 26.875 27.625C25.25 30.625 29.5 30.75 32.625 31.5C35.75 32.25 33.75 30.375 35.875 26C36.75 24.375 33.75 24.75 30.625 23.625Z" fill="#ED4C5C"/>
<path d="M17.5 32.75C14.375 31.625 15.375 33.75 13.75 36.75C12.125 39.75 16.375 39.875 19.5 40.625C22.625 41.375 20.625 39.5 22.75 35.125C23.625 33.375 20.625 33.75 17.5 32.75Z" fill="#FFCE31"/>
</svg>
